#!OML:ASF H:\MichaelJackson\Top Level 1\Subject 1\Session 1\male.ASF
:FULLY-SPECIFIED
:DEGREES
242
root 2.25338 15.1043 -26.5793 9.63509 4.59014 0.802893
lowerback 0.175896 -1.44061 2.61622
upperback -0.703753 -1.96375 -6.49711
thorax -1.14864 -1.04282 -8.24895
lowerneck -10.0404 -0.731532 6.45287
upperneck 2.51119 -2.01618 4.40009
head 2.52939 -0.769791 0.196894
rclavicle -1.07344e-014 1.90833e-014
rhumerus -6.84648 -31.524 -15.4909
rradius 72.6762
rwrist -21.2087
rhand -42.139 -64.7669
rfingers 7.12502
rthumb -15.0291 94.2014
lclavicle -1.07344e-014 1.90833e-014
lhumerus -59.185 -44.3479 112.894
lradius 55.3187
lwrist 24.2709
lhand 40.8848 25.2283
lfingers 7.12502
lthumb 63.1244 35.248
rfemur -32.4782 -30.2303 -0.365469
rtibia 53.2791
rfoot -26.1775 12.191
rtoes -38.1054
lfemur -4.86071 8.17197 8.94936
ltibia 21.4728
lfoot -20.8472 -0.196194
ltoes -32.2435
243
root 2.23471 15.1083 -26.596 9.85539 4.8099 0.328093
lowerback 0.276071 -1.69652 2.56598
upperback -0.676438 -2.30253 -6.04323
thorax -1.20927 -1.21091 -7.71799
lowerneck -9.93036 -0.41681 6.46352
upperneck 2.16119 -1.56213 4.29609
head 2.39406 -0.562966 0.185722
rclavicle 0 2.06736e-014
rhumerus -8.56353 -26.6148 -16.1685
rradius 77.4515
rwrist -18.7863
rhand -39.4776 -62.2007
rfingers 7.12502
rthumb -12.4642 91.809
lclavicle 0 2.06736e-014
lhumerus -59.1589 -43.1898 112.799
lradius 55.8015
lwrist 24.0841
lhand 38.6611 24.1903
lfingers 7.12502
lthumb 61.2763 36.5571
rfemur -32.7933 -30.416 0.436162
rtibia 53.2432
rfoot -26.1037 12.2507
rtoes -37.7879
lfemur -6.20431 9.63561 9.31645
ltibia 23.3183
lfoot -20.7548 0.123844
ltoes -32.1141
244
root 2.22147 15.1139 -26.6157 10.0386 5.03701 -0.198774
lowerback 0.385823 -1.98477 2.58234
upperback -0.608576 -2.68157 -5.5454
thorax -1.23393 -1.39727 -7.18057
lowerneck -9.86138 -0.0974519 6.39295
upperneck 1.85259 -1.09534 4.10819
head 2.28146 -0.350716 0.160898
rclavicle 1.15295e-014 3.18055e-015
rhumerus -9.97836 -21.1679 -17.193
rradius 82.1076
rwrist -15.7593
rhand -35.9192 -59.2596
rfingers 7.12502
rthumb -9.03181 270.954
lclavicle 1.15295e-014 3.18055e-015
lhumerus -59.2417 -42.1208 112.842
lradius 56.331
lwrist 24.1822
lhand 35.871 23.176
lfingers 7.12502
lthumb 58.8934 38.0678
rfemur -33.0573 -30.4371 1.23944
rtibia 53.1721
rfoot -25.9366 12.268
rtoes -37.3904
lfemur -7.59983 11.1313 9.70032
ltibia 25.2653
lfoot -20.6149 0.379724
ltoes -31.9638
245
root 2.21262 15.1207 -26.6383 10.1828 5.27567 -0.746806
lowerback 0.523369 -2.26988 2.65578
upperback -0.503479 -3.05402 -5.042
thorax -1.23109 -1.57899 -6.67264
lowerneck -9.85653 0.188724 6.26276
upperneck 1.59774 -0.672952 3.85848
head 2.19913 -0.15945 0.123498
rclavicle 1.11319e-014 -4.6118e-014
rhumerus -11.2093 -15.4413 -18.4881
rradius 86.5659
rwrist -12.249
rhand -31.7353 -56.1884
rfingers 7.12502
rthumb -4.99316 273.89
lclavicle 1.11319e-014 -4.6118e-014
lhumerus -59.4496 -41.2837 113.056
lradius 56.8952
lwrist 24.5409
lhand 32.5932 22.1664
lfingers 7.12502
lthumb 56.022 39.5391
rfemur -33.2533 -30.3255 2.01758
rtibia 53.0542
rfoot -25.7077 12.2039
rtoes -36.9314
lfemur -9.04257 12.6759 10.066
ltibia 27.2902
lfoot -20.3951 0.563463
ltoes -31.6979
246
root 2.20669 15.1288 -26.6633 10.2865 5.52878 -1.30017
lowerback 0.707364 -2.5194 2.77239
upperback -0.372308 -3.37714 -4.56305
thorax -1.21952 -1.73556 -6.21743
lowerneck -9.9139 0.410202 6.09857
upperneck 1.40073 -0.341141 3.5839
head 2.14722 -0.0107518 0.0793522
rclavicle -1.98785e-014 -3.02153e-014
rhumerus -12.3829 -9.58342 -20.023
rradius 90.7618
rwrist -8.29536
rhand -26.7869 -52.8795
rfingers 7.12502
rthumb -0.214312 277.141
lclavicle -1.98785e-014 -3.02153e-014
lhumerus -59.771 -40.7503 113.426
lradius 57.4966
lwrist 25.0447
lhand 29.0342 21.2256
lfingers 7.12502
lthumb 52.8365 40.8209
rfemur -33.3683 -30.0911 2.76008
rtibia 52.8845
rfoot -25.4565 11.9899
rtoes -36.5194
lfemur -10.5242 14.287 10.3951
ltibia 29.3595
lfoot -20.0803 0.67045
ltoes -31.3142
247
root 2.20278 15.1383 -26.6902 10.3612 5.80328 -1.82188
lowerback 0.943519 -2.71598 2.88723
upperback -0.229285 -3.62852 -4.13295
thorax -1.21524 -1.85629 -5.81399
lowerneck -10.0111 0.552955 5.92183
upperneck 1.24719 -0.119343 3.32501
head 2.1162 0.0860493 0.0371896
rclavicle -1.76918e-014 1.59028e-014
rhumerus -13.5832 -3.76881 -21.8329
rradius 94.6015
rwrist -3.93941
rhand -21.1205 -49.5532
rfingers 7.12502
rthumb 5.25803 280.532
lclavicle -1.76918e-014 1.59028e-014
lhumerus -60.1551 -40.5225 113.9
lradius 58.1318
lwrist 25.495
lhand 25.5335 20.4055
lfingers 7.12502
lthumb 49.6505 41.8098
rfemur -33.4026 -29.7499 3.42845
rtibia 52.665
rfoot -25.1968 11.6118
rtoes -36.1881
lfemur -12.0509 15.9708 10.635
ltibia 31.4414
lfoot -19.6627 0.755114
ltoes -30.8148
248
root 2.20028 15.1487 -26.7183 10.4157 6.09854 -2.29708
lowerback 1.22534 -2.84707 2.96582
upperback -0.0845318 -3.79197 -3.76096
thorax -1.22334 -1.93325 -5.45234
lowerneck -10.1133 0.612526 5.74823
upperneck 1.10753 -0.0120127 3.11847
head 2.08936 0.128363 0.00586007
rclavicle -1.51076e-014 -9.54166e-015
rhumerus -14.8691 1.79691 -23.9811
rradius 97.9729
rwrist 0.672245
rhand -14.1774 -45.8485
rfingers 7.12502
rthumb 11.958 284.513
lclavicle -1.51076e-014 -9.54166e-015
lhumerus -60.5428 -40.5563 114.418
lradius 58.778
lwrist 25.7478
lhand 22.305 19.6803
lfingers 7.12502
lthumb 46.676 42.488
rfemur -33.3651 -29.2863 4.00516
rtibia 52.4006
rfoot -24.9229 11.0607
rtoes -35.937
lfemur -13.6174 17.7244 10.762
ltibia 33.5104
lfoot -19.1631 0.827691
ltoes -30.1882
249
root 2.19977 15.1602 -26.7471 10.468 6.42299 -2.72338
lowerback 1.53959 -2.91309 2.99923
upperback 0.0494788 -3.86868 -3.44342
thorax -1.25013 -1.96747 -5.12378
lowerneck -10.1956 0.594112 5.57775
upperneck 0.963504 -0.0101685 2.98684
head 2.05598 0.120428 -0.00706702
rclavicle 1.70955e-014 -2.8625e-014
rhumerus -16.2506 6.88494 -26.5188
rradius 100.785
rwrist 5.29001
rhand -5.04985 -41.5835
rfingers 7.12502
rthumb 20.7455 289.505
lclavicle 1.70955e-014 -2.8625e-014
lhumerus -60.8461 -40.7651 114.894
lradius 59.4151
lwrist 25.5654
lhand 19.7057 19.1015
lfingers 7.12502
lthumb 44.2608 42.8864
rfemur -33.272 -28.7122 4.49241
rtibia 52.093
rfoot -24.6261 10.3521
rtoes -35.7436
lfemur -15.2371 19.5123 10.7573
ltibia 35.5491
lfoot -18.6285 0.921366
ltoes -29.4572
